<svg xmlns="http://www.w3.org/2000/svg" xmlns:xlink="http://www.w3.org/1999/xlink" id="Ebene_1" width="138.2" height="31.3" x="0" y="0" enable-background="new -228 405.6 138.2 31.3" version="1.1" viewBox="-228 405.6 138.2 31.3" xml:space="preserve"><g><path fill="#1FBDEE" d="M-213,412.5c-1.4-0.2-3.6-0.4-6.8-0.4h-8.2v24.1h10c3,0,5.1-0.2,6.4-0.6c2.3-0.8,4-2.2,5.2-4.4 c1-2,1.6-4.3,1.6-7.1c0-4-1.1-7.1-3.3-9.2C-209.5,413.6-211.1,412.8-213,412.5z M-214.3,429.5c-0.8,0.8-1.9,1.1-3.2,1.1h-2.9v-12.9 h2.9c1,0,1.8,0.1,2.4,0.4c0.9,0.4,1.6,1.2,2,2.5c0.4,1.1,0.6,2.3,0.6,3.5C-212.5,426.5-213.1,428.3-214.3,429.5z"/><polygon fill="#1FBDEE" points="-195.7 426.2 -185 426.2 -185 420.9 -195.7 420.9 -195.7 417.4 -184.3 417.4 -184.3 412.1 -203.3 412.1 -203.3 436.1 -183.3 436.1 -183.3 430.9 -195.7 430.9"/><path fill="#1FBDEE" d="M-165,426.8c-0.9,2.6-2.5,4-4.9,4c-1.8,0-3.1-0.7-4-2.1c-0.8-1.2-1.1-2.8-1.1-4.8c0-2.5,0.6-4.3,1.8-5.4 c0.9-0.9,2-1.3,3.2-1.3c2.2,0,3.8,1.3,5,4l6.4-3.2c-0.6-1.1-1.3-2.1-2-2.8c-2.5-2.6-5.7-3.9-9.6-3.9c-3.9,0-7,1.4-9.3,4.1 c-2.1,2.5-3.2,5.5-3.2,9c0,3.4,1,6.3,3,8.6c2.3,2.7,5.4,4,9.4,4c3.8,0,7-1.2,9.3-3.5c0.5-0.5,1-1.1,1.4-1.7c0.2-0.4,0.5-0.9,1-1.7 L-165,426.8z"/><path fill="#1FBDEE" d="M-150.1,412.1l-9.2,24.1h8.2l1.1-3.3h8.4l1.1,3.3h8.2l-9-24.1H-150.1z M-148.4,427.4l2.6-8.5l2.6,8.5 H-148.4z"/><polygon fill="#1FBDEE" points="-112.6 417.4 -112.6 412.1 -131.6 412.1 -131.6 436.1 -124 436.1 -124 426.9 -113.3 426.9 -113.3 421.7 -124 421.7 -124 417.4"/></g><g><path fill="#99A1AB" d="M-89.9,423.1l-5-3.8l3.9-5.1l-4.2-3.3l-3.9,5.1l-1.5-1.2c-0.8,0.1-1.5-0.1-2.1-0.7 c-0.4-0.4-0.6-0.9-0.7-1.5l-0.8-0.6l-3.3,4.2l5.2,4l-3.9,5.1l4.2,3.3l3.9-5.1l5,3.8L-89.9,423.1z"/><polygon fill="#99A1AB" points="-107.5 428.5 -106.5 428.5 -107.5 420.2"/><path fill="#99A1AB" d="M-103.4,410.8h-4.1v1.1l4-0.5C-103.5,411.2-103.5,411-103.4,410.8z"/><polygon fill="#99A1AB" points="-90.9 410.8 -89.8 419.1 -89.8 410.8"/><polygon fill="#99A1AB" points="-89.8 428.5 -89.8 427.4 -98.1 428.5"/><path fill="#99A1AB" d="M-103,410.4c0.2-0.2,0.2-0.5,0.3-0.9c0.2-0.5,0.5-0.9,0.8-1.4c0.6-0.7,1.2-1.4,2.1-1.7 c2.5-0.9,3.7,1.9,2.9,3.9c-0.5,1.5-2.2,3.2-3.9,3.1c-2.6-0.1-1.3-3.7-0.3-4.9c0.3-0.3,0.8-0.7,1.2-0.6c0.2,0.1,0.6-0.1,0.6-0.3 c0-0.5-0.7-0.6-1-0.5c-0.5,0.1-0.9,0.6-1.2,0.9c-1.3,1.5-2.2,3.8-0.8,5.5c1.5,1.7,4.2-0.2,5.2-1.6c1.1-1.5,1.7-4.2,0.3-5.7 c-1.1-1.4-3.1-0.9-4.3,0.1c-0.7,0.6-1.3,1.3-1.8,2.1C-103,409-103.6,410.2-103,410.4z"/><path fill="#99A1AB" d="M-100.9,412.7c-0.1,0.2,0.2,0.3,0.3,0.2c0.2-0.2,0.3-0.5,0.4-0.7c0.2-0.5,0.5-1,0.8-1.4 c0.3-0.5,1.8-2.1,1.6-2.7c-0.6-0.3-1.5,1.4-1.8,1.8C-100.2,410.7-100.7,411.6-100.9,412.7z"/></g></svg>