<?xml version="1.0" encoding="utf-8"?>
<!-- Generator: Adobe Illustrator 19.2.0, SVG Export Plug-In . SVG Version: 6.00 Build 0)  -->
<!DOCTYPE svg PUBLIC "-//W3C//DTD SVG 1.1//EN" "http://www.w3.org/Graphics/SVG/1.1/DTD/svg11.dtd">
<svg version="1.1" id="Ebene_1" xmlns="http://www.w3.org/2000/svg" xmlns:xlink="http://www.w3.org/1999/xlink" x="0px" y="0px"
	 width="436px" height="100px" viewBox="0 0 436 100" style="enable-background:new 0 0 436 100;" xml:space="preserve">
<style type="text/css">
	.st0{fill:#3BB7F4;}
	.st1{fill:#B1BAC4;}
</style>
<g>
	<g>
		<path class="st0" d="M47.3,22.7C42.9,22,36,21.4,25.9,21.4H0v76h31.5c9.5,0,16.1-0.6,20.2-1.9C59,93,64.4,88.6,68.1,81.6
			c3.2-6.3,5-13.6,5-22.4c0-12.6-3.5-22.4-10.4-29C58.4,26.1,53.3,23.6,47.3,22.7z M43.2,76.3c-2.5,2.5-6,3.5-10.1,3.5H24V39.1h9.1
			c3.2,0,5.7,0.3,7.6,1.3c2.8,1.3,5,3.8,6.3,7.9c1.3,3.5,1.9,7.3,1.9,11C48.9,66.8,47,72.5,43.2,76.3z"/>
		<polygon class="st0" points="101.9,65.9 135.7,65.9 135.7,49.2 101.9,49.2 101.9,38.1 137.9,38.1 137.9,21.4 77.9,21.4 77.9,97.1 
			141,97.1 141,80.7 101.9,80.7 		"/>
		<path class="st0" d="M198.8,67.8c-2.8,8.2-7.9,12.6-15.5,12.6c-5.7,0-9.8-2.2-12.6-6.6c-2.5-3.8-3.5-8.8-3.5-15.1
			c0-7.9,1.9-13.6,5.7-17c2.8-2.8,6.3-4.1,10.1-4.1c6.9,0,12,4.1,15.8,12.6L218.9,40c-1.9-3.5-4.1-6.6-6.3-8.8
			c-7.9-8.2-18-12.3-30.3-12.3s-22.1,4.4-29.3,12.9c-6.6,7.9-10.1,17.4-10.1,28.4c0,10.7,3.2,19.9,9.5,27.1
			c7.3,8.5,17,12.6,29.7,12.6c12,0,22.1-3.8,29.3-11c1.6-1.6,3.2-3.5,4.4-5.4c0.6-1.3,1.6-2.8,3.2-5.4L198.8,67.8z"/>
		<path class="st0" d="M245.8,21.4l-29,76h25.9l3.5-10.4h26.5l3.5,10.4h25.9l-28.4-76H245.8z M251.1,69.7l8.2-26.8l8.2,26.8H251.1z"
			/>
		<polygon class="st0" points="364.1,38.1 364.1,21.4 304.1,21.4 304.1,97.1 328.1,97.1 328.1,68.1 361.9,68.1 361.9,51.7 
			328.1,51.7 328.1,38.1 		"/>
	</g>
	<g>
		<path class="st1" d="M435.7,56.1l-15.8-12L432.2,28L419,17.6l-12.3,16.1l-4.7-3.8c-2.5,0.3-4.7-0.3-6.6-2.2
			c-1.3-1.3-1.9-2.8-2.2-4.7l-2.5-1.9l-10.4,13.3l16.4,12.6L384.3,63l13.3,10.4l12.3-16.1l15.8,12L435.7,56.1z"/>
		<polygon class="st1" points="380.2,73.1 383.3,73.1 380.2,46.9 		"/>
		<path class="st1" d="M393.1,17.3h-12.9v3.5l12.6-1.6C392.8,18.6,392.8,17.9,393.1,17.3z"/>
		<polygon class="st1" points="432.5,17.3 436,43.5 436,17.3 		"/>
		<polygon class="st1" points="436,73.1 436,69.7 409.8,73.1 		"/>
		<path class="st1" d="M394.4,16c0.6-0.6,0.6-1.6,0.9-2.8c0.6-1.6,1.6-2.8,2.5-4.4c1.9-2.2,3.8-4.4,6.6-5.4c7.9-2.8,11.7,6,9.1,12.3
			c-1.6,4.7-6.9,10.1-12.3,9.8c-8.2-0.3-4.1-11.7-0.9-15.5c0.9-0.9,2.5-2.2,3.8-1.9c0.6,0.3,1.9-0.3,1.9-0.9c0-1.6-2.2-1.9-3.2-1.6
			c-1.6,0.3-2.8,1.9-3.8,2.8c-4.1,4.7-6.9,12-2.5,17.4c4.7,5.4,13.3-0.6,16.4-5c3.5-4.7,5.4-13.3,0.9-18c-3.5-4.4-9.8-2.8-13.6,0.3
			c-2.2,1.9-4.1,4.1-5.7,6.6C394.4,11.6,392.5,15.4,394.4,16z"/>
		<path class="st1" d="M401,23.3c-0.3,0.6,0.6,0.9,0.9,0.6c0.6-0.6,0.9-1.6,1.3-2.2c0.6-1.6,1.6-3.2,2.5-4.4c0.9-1.6,5.7-6.6,5-8.5
			c-1.9-0.9-4.7,4.4-5.7,5.7C403.2,17,401.6,19.8,401,23.3z"/>
	</g>
</g>
</svg>
