<?xml version="1.0" standalone="no"?>
<!DOCTYPE svg PUBLIC "-//W3C//DTD SVG 20010904//EN"
 "http://www.w3.org/TR/2001/REC-SVG-20010904/DTD/svg10.dtd">
<svg version="1.0" xmlns="http://www.w3.org/2000/svg"
 width="700.000000pt" height="700.000000pt" viewBox="0 0 700.000000 700.000000"
 preserveAspectRatio="xMidYMid meet">
<metadata>
Created by potrace 1.11, written by Peter Selinger 2001-2013
</metadata>
<g transform="translate(0.000000,700.000000) scale(0.100000,-0.100000)"
fill="#000000" stroke="none">
<path d="M0 6781 l0 -220 33 5 c27 3 103 13 312 39 48 6 111 15 145 20 14 2
52 6 86 10 33 3 71 8 85 10 13 2 118 16 234 30 116 14 221 28 235 30 14 2 48
6 75 10 71 8 108 13 205 25 47 7 103 14 125 16 22 3 40 6 41 7 1 1 4 36 7 77
4 41 11 91 17 110 5 19 10 38 10 42 0 5 -362 8 -805 8 l-805 0 0 -219z"/>
<path d="M4818 6936 c-157 -207 -283 -373 -293 -383 -5 -6 -275 -360 -600
-787 -324 -426 -594 -775 -599 -775 -8 -1 -110 72 -126 89 -4 5 -400 326 -446
362 -7 5 -85 10 -175 12 -175 3 -235 15 -367 69 -86 36 -214 122 -290 197
-160 157 -236 310 -287 579 -2 13 -6 25 -7 26 -10 7 -147 112 -221 169 -49 38
-92 64 -96 60 -5 -5 -169 -216 -367 -469 -197 -253 -458 -587 -579 -742 -121
-154 -247 -316 -280 -358 -33 -42 -61 -83 -63 -90 -2 -8 7 -19 20 -26 13 -7
25 -15 28 -19 3 -3 75 -59 160 -125 85 -65 182 -139 215 -165 33 -25 157 -120
275 -210 118 -90 217 -167 220 -170 3 -3 32 -25 65 -50 33 -25 197 -151 365
-280 168 -129 332 -255 365 -280 33 -25 68 -52 77 -60 9 -8 69 -53 132 -100
63 -47 115 -92 115 -100 1 -8 -12 -31 -28 -50 -16 -19 -219 -280 -451 -580
-232 -300 -432 -558 -445 -575 -13 -16 -81 -104 -152 -195 -70 -91 -132 -170
-138 -176 -5 -6 -17 -22 -25 -34 -8 -12 -19 -28 -25 -34 -5 -6 -23 -29 -40
-50 -16 -22 -48 -63 -70 -91 -179 -231 -169 -215 -149 -235 17 -16 246 -196
1107 -868 137 -106 256 -200 265 -207 36 -29 141 -111 172 -135 18 -14 49 -37
68 -53 l35 -27 15 22 c9 13 19 25 22 28 3 3 55 70 116 150 113 149 189 248
397 520 65 85 128 168 140 184 56 74 500 654 582 761 50 66 131 172 179 235
49 63 92 114 97 112 9 -2 63 -43 364 -272 55 -42 186 -141 290 -220 105 -79
202 -153 216 -164 14 -12 38 -30 53 -41 15 -11 72 -54 126 -95 54 -41 160
-122 236 -180 76 -58 247 -187 379 -288 257 -196 314 -237 318 -231 2 2 37 49
78 104 40 55 76 102 80 105 3 3 25 32 49 64 24 33 49 67 56 75 7 9 57 75 111
146 232 307 482 637 553 730 42 55 131 173 199 262 l122 163 -28 25 c-15 13
-31 25 -35 25 -4 0 -13 6 -20 13 -7 7 -123 96 -258 197 -135 102 -247 187
-250 190 -3 3 -43 34 -90 69 -47 36 -150 114 -230 174 -126 96 -165 126 -215
165 -5 4 -71 54 -145 110 -180 136 -649 492 -683 518 l-27 22 134 173 c73 96
318 417 545 714 227 297 417 547 424 555 7 8 71 92 142 185 71 94 167 218 212
278 46 59 83 109 83 111 0 4 -117 99 -180 146 -19 14 -48 37 -64 51 -17 14
-83 65 -146 114 -63 50 -117 92 -120 95 -3 3 -68 55 -145 115 -77 60 -154 120
-171 134 -67 56 -82 67 -154 123 -41 31 -125 97 -186 145 -213 169 -468 368
-478 374 -6 4 -32 -21 -58 -55z"/>
<path d="M6564 6973 c3 -16 8 -53 12 -83 4 -30 8 -64 10 -75 18 -140 36 -276
40 -302 10 -78 15 -110 19 -138 2 -16 7 -52 10 -80 7 -58 12 -94 25 -185 5
-36 12 -84 15 -107 3 -24 7 -62 10 -85 3 -24 10 -72 15 -108 5 -36 11 -83 14
-105 3 -22 7 -56 10 -75 6 -36 23 -166 31 -235 10 -76 16 -120 20 -145 4 -20
43 -321 61 -460 10 -84 25 -188 29 -209 2 -12 7 -50 10 -84 4 -34 8 -64 10
-67 1 -3 6 -36 9 -75 4 -38 9 -77 11 -85 2 -8 6 -33 9 -55 3 -22 10 -78 16
-125 6 -47 13 -96 15 -110 2 -14 7 -47 10 -75 3 -27 9 -72 14 -100 5 -29 9
643 10 1573 l1 1622 -221 0 -221 0 6 -27z"/>
<path d="M0 1622 l0 -1622 196 0 196 0 -6 28 c-3 15 -8 52 -11 82 -3 30 -7 69
-9 85 -2 17 -7 55 -10 85 -4 30 -9 71 -11 90 -8 61 -14 113 -20 165 -11 103
-16 141 -20 170 -2 17 -7 62 -11 100 -3 39 -8 79 -10 90 -2 11 -11 81 -19 155
-9 74 -17 149 -20 165 -6 50 -14 117 -20 170 -3 28 -7 66 -10 85 -3 19 -7 58
-10 85 -12 102 -16 141 -20 165 -2 14 -7 52 -10 85 -7 65 -14 126 -20 165 -2
14 -6 52 -10 85 -6 68 -24 217 -30 255 -2 14 -6 52 -10 85 -3 33 -8 71 -10 85
-2 14 -6 52 -10 85 -3 33 -8 71 -10 85 -2 14 -6 52 -10 85 -3 33 -8 71 -10 85
-2 14 -6 52 -10 85 -4 33 -8 74 -11 90 -2 17 -6 50 -8 75 -13 125 -18 165 -22
169 -2 2 -4 -725 -4 -1617z"/>
<path d="M6957 423 c-1 -1 -56 -9 -122 -17 -66 -9 -138 -18 -160 -21 -22 -3
-54 -7 -71 -9 -17 -2 -49 -6 -70 -10 -21 -3 -63 -8 -93 -12 -30 -3 -62 -7 -71
-9 -9 -2 -41 -6 -71 -10 -104 -12 -134 -16 -159 -20 -14 -3 -50 -7 -80 -10
-30 -3 -66 -7 -80 -10 -21 -3 -123 -17 -305 -40 -96 -13 -132 -18 -145 -20 -8
-1 -46 -6 -85 -10 -38 -4 -72 -8 -75 -10 -3 -1 -36 -6 -73 -10 -37 -3 -76 -8
-86 -10 -10 -2 -42 -6 -72 -10 -30 -3 -65 -8 -79 -10 -14 -2 -47 -7 -75 -10
-46 -5 -91 -11 -155 -20 -14 -2 -52 -7 -85 -10 -33 -3 -67 -8 -75 -10 -8 -2
-40 -7 -70 -10 -30 -3 -66 -7 -80 -10 -14 -2 -45 -7 -70 -10 -25 -2 -81 -9
-125 -15 -71 -10 -224 -29 -354 -46 -25 -3 -57 -7 -71 -10 -14 -2 -52 -7 -85
-10 -33 -4 -62 -8 -64 -10 -2 -2 728 -4 1622 -4 l1627 0 0 213 c0 208 0 213
-20 213 -12 0 -22 -1 -23 -3z"/>
</g>
</svg>
